<svg width="64" height="64" viewBox="0 0 64 64" fill="none" xmlns="http://www.w3.org/2000/svg">
<path fill-rule="evenodd" clip-rule="evenodd" d="M24.9067 50.3999L56.1867 19.1199C58.327 17.1256 59.208 14.122 58.4841 11.2875C57.7603 8.45304 55.5469 6.23972 52.7124 5.51584C49.8779 4.79196 46.8744 5.67298 44.88 7.81328L13.52 39.1733C13.3194 39.3795 13.1489 39.6129 13.0133 39.8666L5.60002 54.8266C5.19462 55.654 5.24504 56.632 5.73334 57.4133C6.22165 58.1946 7.07868 58.6685 8.00002 58.6666C8.44 58.6563 8.87058 58.5372 9.25335 58.32L24.2133 50.9066C24.4671 50.7711 24.7005 50.6005 24.9067 50.3999ZM56 58.6666C57.4728 58.6666 58.6667 57.4727 58.6667 56C58.6667 54.5272 57.4728 53.3333 56 53.3333H32C30.5273 53.3333 29.3333 54.5272 29.3333 56C29.3333 57.4727 30.5273 58.6666 32 58.6666H56ZM43.52 24.2399L39.76 20.4799L17.68 42.6666L13.9733 50.1333L21.3333 46.32L43.52 24.2399ZM50.5733 10.6633C51.3043 10.6633 52.0032 10.9633 52.5067 11.4933C53.0264 12.0076 53.3121 12.7128 53.2969 13.4438C53.2818 14.1748 52.9672 14.8675 52.4267 15.3599L47.28 20.4799L43.52 16.7199L48.64 11.4933C49.1435 10.9633 49.8424 10.6633 50.5733 10.6633Z" fill="#231F20"/>
</svg>
